<?xml version="1.0" encoding="UTF-8"?>
<svg width="65px" height="64px" viewBox="0 0 65 64" version="1.1" xmlns="http://www.w3.org/2000/svg" xmlns:xlink="http://www.w3.org/1999/xlink">
    <!-- Generator: Sketch 64 (93537) - https://sketch.com -->
    <title>circle-webversion</title>
    <desc>Created with Sketch.</desc>
    <g id="Web-2.0" stroke="none" stroke-width="1" fill="none" fill-rule="evenodd">
        <g id="Desktop---Home" transform="translate(-1356.000000, -18.000000)" fill="#F9BCBF">
            <g id="Group-4" transform="translate(1356.000000, 18.000000)">
                <g id="circle-webversion" transform="translate(0.011341, 0.373338)">
                    <path d="M32.227952,63.6266615 C48.9286526,63.6266615 64.9886585,47.4607889 64.9886585,30.7977544 C64.9886585,14.1347199 48.9286526,0.626661507 32.227952,0.626661507 C15.5272514,0.626661507 1.98865852,14.1347199 1.98865852,30.7977544 C1.98865852,47.4607889 15.5272514,63.6266615 32.227952,63.6266615 Z" id="Oval" fill-opacity="0.208123907"></path>
                    <path d="M32.9823381,60.6591212 L32.1949267,60.6591212 L32.1949267,59.8160342 L32.9823381,59.8160342 L32.9823381,60.6591212 Z M37.8440361,60.2386786 L38.1716943,60.8929186 L38.195606,60.8892588 L38.1160985,60.1494164 L37.9447529,56.2211328 L38.6022371,56.005416 L40.7989363,59.2691926 L41.1819157,59.9262091 L41.2045876,59.9187706 L41.0823347,59.1762112 L40.7220569,55.3099152 L41.4664499,55.0656841 L41.9452243,61.0025438 L41.2801828,61.2207402 L38.9435623,57.7601177 L38.6829101,57.2973488 L38.6602382,57.3047873 L38.7281796,57.8307836 L38.8769647,62.0092224 L38.2119232,62.2274187 L35.0843188,57.159625 L35.8249332,56.9166336 L37.8440361,60.2386786 Z M47.9498547,55.1396791 L45.7441202,56.6130147 L46.8949565,58.3359347 L49.4379998,56.6372915 L49.7781702,57.1465615 L46.5836581,59.2803578 L43.3675014,54.4654411 L46.525637,52.3559427 L46.8680163,52.8685197 L44.3613495,54.542865 L45.4017409,56.1004377 L47.6074754,54.6271021 L47.9498547,55.1396791 Z M52.6017056,55.0571889 L48.3401304,51.1372316 L49.6189626,49.7469513 C50.028191,49.3020593 50.444668,49.0421566 50.8684062,48.9672352 C51.2921445,48.8923139 51.6962086,49.031645 52.0806109,49.3852326 C52.2698851,49.5593341 52.3835162,49.7755248 52.4215078,50.0338111 C52.4594994,50.2920973 52.4239539,50.5529812 52.3148703,50.8164703 C52.6064278,50.6091574 52.9184975,50.5224819 53.2510889,50.5564413 C53.5836802,50.5904006 53.8807072,50.7276339 54.1421788,50.9681453 C54.5324349,51.3271175 54.714273,51.7276219 54.6876986,52.1696706 C54.6611241,52.6117193 54.4486105,53.0493292 54.0501513,53.4825134 L52.6017056,55.0571889 Z M51.1330076,52.6417623 L52.6813409,54.0659775 L53.5994078,53.0679026 C53.8399192,52.806431 53.9626003,52.542847 53.9674547,52.2771427 C53.9723091,52.0114384 53.85571,51.7691034 53.6176538,51.5501303 C53.3678899,51.3203881 53.1157006,51.2009838 52.8610783,51.191914 C52.606456,51.1828441 52.3624825,51.3051406 52.1291506,51.5588071 L51.1330076,52.6417623 Z M50.6822641,52.2271514 L51.5411009,51.2934684 C51.7385356,51.0788276 51.8401479,50.8498968 51.8459409,50.6066694 C51.8517338,50.3634419 51.7492627,50.144909 51.5385244,49.951064 C51.3082733,49.7392704 51.0692178,49.6535603 50.8213508,49.6939313 C50.5734837,49.7343024 50.3239136,49.8910751 50.0726331,50.1642544 L49.3241797,50.9779343 L50.6822641,52.2271514 Z M59.307009,43.0847856 L59.7815838,43.1187951 L59.7897878,43.0963888 L59.4054572,42.8159109 L55.8341733,39.9159206 L56.125416,39.1204995 L60.8229319,43.1316369 L60.591852,43.7627457 L54.4148777,43.7921984 L54.7074878,42.9930429 L59.307009,43.0847856 Z M60.2804052,34.1596845 L59.9863965,36.7958828 L62.0455559,37.0255358 L62.3845254,33.9862008 L62.9931829,34.0540828 L62.5673772,37.8720252 L56.8127975,37.230231 L57.2337545,33.4557642 L57.8463643,33.5240871 L57.5122434,36.5199466 L59.3737867,36.7275599 L59.6677954,34.0913617 L60.2804052,34.1596845 Z M60.6247808,30.0968112 L63.1132444,29.7735135 L63.2141789,30.550419 L57.476121,31.2958994 L57.2061084,29.2175788 C57.1244724,28.5892156 57.2014782,28.0913026 57.4371282,27.7238248 C57.6727782,27.356347 58.0561401,27.1381125 58.5872253,27.0691147 C58.8816884,27.0308584 59.1480161,27.0744565 59.3862163,27.1999103 C59.6244165,27.3253641 59.8270555,27.526951 59.9941394,27.804677 C60.0556868,27.4758594 60.1925168,27.2274957 60.4046335,27.0595785 C60.6167502,26.8916612 60.8923836,26.7856727 61.231542,26.7416097 L61.7718264,26.6714167 C61.9506076,26.6481897 62.1084207,26.6076358 62.2452703,26.5497538 C62.38212,26.4918718 62.4889194,26.4084863 62.5656718,26.2995949 L62.6603202,26.2872983 L62.7643288,27.0878658 C62.6882596,27.2020156 62.565344,27.2848214 62.3955784,27.3362857 C62.2258128,27.38775 62.048913,27.4254367 61.8648735,27.4493468 L61.3403638,27.5174904 C61.0301259,27.5577961 60.7921459,27.6809489 60.6264168,27.8869525 C60.4606877,28.0929561 60.3976353,28.3484439 60.4372579,28.6534235 L60.6247808,30.0968112 Z M60.01351,30.1762267 L59.8546791,28.9536851 C59.7976363,28.5146196 59.673089,28.2093157 59.4810333,28.0377642 C59.2889775,27.8662128 59.0220599,27.8026402 58.6802724,27.8470448 C58.3568888,27.8890583 58.1186786,28.0155829 57.9656345,28.2266222 C57.8125904,28.4376616 57.7618579,28.7416764 57.8134355,29.1386757 L57.9825136,30.4400909 L60.01351,30.1762267 Z M59.4907901,20.2777076 C59.2444119,20.375626 59.0747921,20.5500219 58.9819257,20.8009005 C58.8890593,21.051779 58.8794713,21.435025 58.9531616,21.9506497 C59.0438452,22.5736384 59.0207772,23.0970412 58.8839569,23.5208736 C58.7471366,23.9447061 58.4791642,24.2359318 58.0800316,24.3945597 C57.6611887,24.561021 57.2430399,24.5282169 56.8255725,24.2961464 C56.4081052,24.0640759 56.0906868,23.6745667 55.8733079,23.1276072 C55.6392829,22.5387633 55.6143711,22.0059003 55.7985719,21.5290021 C55.9827728,21.0521038 56.2904336,20.7351194 56.7215638,20.5780395 L56.7466752,20.5766182 L57.0228038,21.2714011 C56.7074398,21.3967367 56.4938121,21.602174 56.3819144,21.8877191 C56.2700168,22.1732642 56.2914232,22.5106704 56.4461343,22.8999479 C56.5900744,23.2621239 56.7823953,23.5073537 57.0231027,23.6356448 C57.2638102,23.7639359 57.5159724,23.7756949 57.7795971,23.6709222 C58.0136563,23.5778997 58.1672934,23.3955913 58.2405129,23.1239917 C58.3137323,22.852392 58.3159607,22.4578065 58.247198,21.9402234 C58.1624212,21.3177401 58.198021,20.8043345 58.3539987,20.3999913 C58.5099763,19.995648 58.789991,19.7131875 59.1940512,19.5526013 C59.6276768,19.3802648 60.0467969,19.419102 60.4514241,19.6691138 C60.8560512,19.9191256 61.1719455,20.329924 61.3991162,20.9015214 C61.6125784,21.4386258 61.6559524,21.9712836 61.5292396,22.4995108 C61.4025267,23.027738 61.0928126,23.382626 60.6000879,23.5641856 L60.5749764,23.5656069 L60.2988478,22.870824 C60.6437773,22.7337382 60.8557388,22.5025737 60.9347389,22.1773238 C61.013739,21.8520738 60.9788215,21.5022067 60.8299855,21.1277118 C60.6840871,20.7606084 60.4909371,20.5007303 60.2505298,20.34807 C60.0101225,20.1954096 59.7568785,20.1719557 59.4907901,20.2777076 Z M58.5973896,14.897872 L59.0273426,15.5575365 L54.1764763,18.7192108 L53.7465234,18.0595463 L58.5973896,14.897872 Z M51.4642038,10.1231061 C51.9658671,9.62368049 52.5368169,9.36484494 53.1770703,9.34659166 C53.8173238,9.32833837 54.384349,9.56722146 54.8781631,10.0632481 C55.3551425,10.5423647 55.5774597,11.0963608 55.5451213,11.7252529 C55.5127829,12.354145 55.245786,12.9182954 54.7441227,13.4177209 L54.0141781,14.1444096 C53.5143937,14.6419646 52.9490554,14.9064367 52.3181461,14.9378339 C51.6872368,14.969231 51.1333007,14.7453746 50.6563213,14.266258 C50.1625072,13.7702314 49.9266311,13.2016762 49.948686,12.5605755 C49.9707408,11.9194748 50.2325959,11.3492203 50.7342592,10.8497947 L51.4642038,10.1231061 Z M51.2813548,11.410615 C50.9055771,11.7847166 50.6984499,12.1929337 50.6599669,12.6352787 C50.621484,13.0776236 50.7724565,13.4697691 51.1128889,13.8117269 C51.4346163,14.1348957 51.8115867,14.2730586 52.2438115,14.2262197 C52.6760363,14.1793808 53.0800315,13.9689138 53.4558092,13.5948122 L54.1913905,12.8625121 C54.570926,12.4846695 54.7850759,12.0797488 54.8338466,11.6477377 C54.8826173,11.2157266 54.746141,10.8381423 54.4244137,10.5149734 C54.0821108,10.1711368 53.6906463,10.0174754 53.2500084,10.0539846 C52.8093705,10.0904938 52.3983505,10.2986018 52.0169361,10.6783149 L51.2813548,11.410615 Z M46.5860086,3.71417662 L47.263094,4.10828979 L47.4197713,9.38073388 L47.4443943,9.38586337 L49.69304,5.52269595 L50.3701254,5.91680913 L47.457289,10.9210545 L46.7802036,10.5269413 L46.6195251,5.26137116 L46.5949021,5.25624167 L44.3502575,9.11253512 L43.6731721,8.71842195 L46.5860086,3.71417662 Z M37.4834455,2.79426713 L38.259442,2.927857 L38.1164063,3.75872193 L37.3404099,3.62513206 L37.4834455,2.79426713 Z M28.5379781,2.01762644 L28.2866069,1.33045652 L28.2624346,1.33138181 L28.2575498,2.07546799 L27.9824219,5.99784942 L27.3047201,6.13763316 L25.4922149,2.64584991 L25.186194,1.94964941 L25.162825,1.95446954 L25.200102,2.70610152 L25.119716,6.58831522 L24.3524329,6.74657612 L24.5498364,0.793714565 L25.2353279,0.652324116 L27.1645348,4.35554758 L27.37104,4.84488412 L27.394409,4.84006399 L27.3865405,4.30975635 L27.7124448,0.141390449 L28.3979363,-1.84741111e-13 L30.9308142,5.38970982 L30.1674259,5.54716737 L28.5379781,2.01762644 Z M17.9284721,5.94559946 L20.285662,4.72919571 L19.3355176,2.88797239 L16.6178578,4.2903929 L16.337009,3.74615415 L19.7508703,1.98446596 L22.4061684,7.129996 L19.0311813,8.87162356 L18.7485088,8.32385078 L21.4272943,6.9414909 L20.5683346,5.27696848 L18.2111446,6.49337223 L17.9284721,5.94559946 Z M13.3010646,5.50217624 L17.0987196,9.87309194 L15.6727684,11.1120247 C15.2164617,11.5084852 14.7735893,11.7203026 14.344138,11.7474833 C13.9146866,11.7746639 13.5286888,11.5911245 13.186133,11.1968596 C13.0174634,11.0027291 12.9286602,10.7752111 12.9197207,10.5142988 C12.9107812,10.2533865 12.9752094,9.99809675 13.1130074,9.74842195 C12.8001417,9.92191404 12.4803504,9.97323341 12.1536238,9.90238163 C11.8268972,9.83152984 11.5470344,9.66201637 11.3140269,9.39383613 C10.9662546,8.99356713 10.8302326,8.57527665 10.9059568,8.13895216 C10.9816811,7.70262766 11.2416886,7.29145793 11.6859872,6.90543063 L13.3010646,5.50217624 Z M14.491125,8.06637505 L13.1113452,6.4783157 L12.0876623,7.36773902 C11.8194821,7.60074649 11.6681609,7.84899854 11.6336943,8.11250262 C11.5992278,8.37600669 11.6880637,8.62983697 11.9002048,8.87400106 C12.1227791,9.13017322 12.3600732,9.27696677 12.6120942,9.3143861 C12.8641152,9.35180543 13.1202092,9.2574905 13.3803841,9.03143847 L14.491125,8.06637505 Z M14.8928001,8.52868344 L13.9351613,9.36072461 C13.7150133,9.5519994 13.5884954,9.76816497 13.5556037,10.0092278 C13.522712,10.2502906 13.6001636,10.4788913 13.7879606,10.6950365 C13.9931463,10.9311952 14.2211476,11.0430397 14.4719712,11.0305731 C14.7227948,11.0181066 14.9882968,10.890155 15.2684851,10.6467143 L16.1030418,9.92161262 L14.8928001,8.52868344 Z M5.2899097,16.655103 L4.82221845,16.5676797 L4.81153486,16.5890152 L5.16170658,16.9111297 L8.3823844,20.1961329 L8.00311685,20.9535451 L3.78899265,16.4372373 L4.08991385,15.8362858 L10.230646,16.5050818 L9.84959782,17.2660499 L5.2899097,16.655103 Z M3.3185318,25.4122172 L3.90707711,22.8257917 L1.88679572,22.3660734 L1.20824798,25.3480242 L0.611082273,25.2121382 L1.46345824,21.4662806 L7.10938856,22.7510212 L6.26671874,26.4542241 L5.66567533,26.3174557 L6.33451693,23.3781595 L4.50812051,22.9625601 L3.9195752,25.5489856 L3.3185318,25.4122172 Z M2.52263935,29.3975848 L0.0136429557,29.4412838 L-8.17124146e-14,28.6579679 L5.78540373,28.557204 L5.82190037,30.6526732 C5.83293483,31.2862212 5.7008688,31.772437 5.42569834,32.1113353 C5.15052788,32.4502336 4.74521507,32.6243433 4.20974776,32.6336695 C3.912855,32.6388404 3.65305269,32.5658063 3.43033304,32.4145649 C3.20761339,32.2633235 3.02872548,32.0403909 2.89366394,31.7457604 C2.79582195,32.0656604 2.63214162,32.2972111 2.40261803,32.4404194 C2.17309445,32.5836277 1.88735852,32.6582086 1.54540168,32.6641645 L1.0006592,32.6736522 C0.820402875,32.6767917 0.659051041,32.6994889 0.516598855,32.7417445 C0.374146669,32.7840001 0.258712359,32.854952 0.170292462,32.9546024 L0.0748631221,32.9562645 L0.060804645,32.1490913 C0.149132203,32.0441392 0.280517413,31.9755611 0.454964215,31.9433548 C0.629411018,31.9111485 0.809410708,31.8934297 0.994968685,31.8901979 L1.52380628,31.8809871 C1.83660401,31.8755392 2.0868361,31.779701 2.27451005,31.5934696 C2.46218401,31.4072383 2.5533418,31.1603783 2.54798616,30.8528822 L2.52263935,29.3975848 Z M3.13895384,29.3868505 L3.16042245,30.6194794 C3.16813272,31.0621677 3.25784702,31.3794592 3.42956806,31.5713633 C3.6012891,31.7632675 3.85944958,31.8562171 4.20405725,31.8502151 C4.53010913,31.8445363 4.7809462,31.7453731 4.95657601,31.5527224 C5.13220581,31.3600718 5.21653366,31.0636134 5.2095621,30.6633383 L5.18670842,29.3511849 L3.13895384,29.3868505 Z M2.55044429,39.3047901 C2.80630835,39.2353365 2.9945466,39.0812225 3.11516466,38.8424432 C3.23578272,38.603664 3.28861153,38.2239556 3.27365267,37.7033066 C3.25394014,37.0740611 3.33599873,36.5566165 3.5198309,36.1509572 C3.70366307,35.7452979 4.00282456,35.4862148 4.41732435,35.3737 C4.85229326,35.2556289 5.26405793,35.3354688 5.65263071,35.6132221 C6.04120349,35.8909754 6.31257927,36.3138548 6.46676622,36.881873 C6.63276026,37.4933882 6.59730526,38.0256537 6.36040015,38.4786855 C6.12349503,38.9317173 5.78198884,39.2119098 5.33587132,39.3192713 L5.31076007,39.3178462 L5.11490197,38.5963131 C5.44240797,38.5074126 5.67787961,38.3274282 5.82132395,38.0563548 C5.96476829,37.7852813 5.98162189,37.447617 5.87188523,37.0433518 C5.76978848,36.6672316 5.60640722,36.4018422 5.38173655,36.2471755 C5.15706589,36.0925089 4.90784702,36.0523338 4.63407247,36.1266491 C4.39100161,36.19263 4.2177497,36.3564117 4.11431156,36.6179992 C4.01087342,36.8795867 3.96407584,37.2713936 3.97391742,37.7934317 C3.98781813,38.4215076 3.89443747,38.9276031 3.69377265,39.3117335 C3.49310783,39.6958638 3.18297154,39.9448772 2.76335447,40.0587811 C2.31303371,40.1810194 1.90098566,40.0950753 1.52719796,39.8009464 C1.15341025,39.5068175 0.885954264,39.0629573 0.724821965,38.4693527 C0.573413167,37.911569 0.590500941,37.3774215 0.776085798,36.8668939 C0.961670655,36.3563664 1.30949963,36.0387449 1.81958316,35.9140201 L1.84469441,35.9154452 L2.04055252,36.6369782 C1.68234283,36.7342132 1.44561974,36.9399482 1.33037615,37.2541893 C1.21513257,37.5684304 1.21029557,37.9200024 1.315865,38.3089157 C1.41935083,38.6901532 1.5819008,38.9701907 1.80351977,39.1490367 C2.02513875,39.3278827 2.2741111,39.3798 2.55044429,39.3047901 Z M2.83214426,44.7475107 L2.47905053,44.0437056 L7.65450619,41.4472183 L8.00759993,42.1510234 L2.83214426,44.7475107 Z M9.3831522,50.2841794 C8.82886944,50.7244777 8.23259257,50.9179548 7.59430369,50.8646167 C6.95601481,50.8112785 6.41920287,50.5105864 5.98385176,49.9625316 C5.56334217,49.4331604 5.4042624,48.8578082 5.50660768,48.2364576 C5.60895296,47.6151071 5.93726205,47.0842906 6.49154481,46.6439923 L7.29805333,46.0033368 C7.85026012,45.5646876 8.4415899,45.3649826 9.0720604,45.404216 C9.7025309,45.4434493 10.2280131,45.7277473 10.6485227,46.2571185 C11.0838738,46.8051734 11.2548023,47.3965074 11.1613134,48.0311382 C11.0678245,48.6657691 10.7439435,49.2032256 10.1896607,49.6435239 L9.3831522,50.2841794 Z M9.70859461,49.0251321 C10.1237877,48.6953206 10.3751931,48.3127788 10.4628185,47.8774952 C10.5504439,47.4422117 10.444194,47.0356631 10.1440656,46.6578374 C9.86042775,46.3007714 9.50123825,46.1213875 9.06648631,46.1196542 C8.63173438,46.1179732 8.20676825,46.2820229 7.79157517,46.6118344 L6.97883879,47.257437 C6.55949378,47.5905466 6.30147754,47.9690286 6.20478234,48.3928944 C6.10808714,48.8167601 6.20155705,49.2072202 6.4851949,49.5642862 C6.78697237,49.9441879 7.15883515,50.1405915 7.60079438,50.153503 C8.04275362,50.1664145 8.47443725,50.0054933 8.89585823,49.6707347 L9.70859461,49.0251321 Z M13.5134672,57.1970436 L12.8846722,56.7297251 L13.3182526,51.4728037 L13.2943571,51.4649543 L10.6280321,55.0525971 L9.99923705,54.5852786 L13.4531243,49.9379406 L14.0819193,50.4052591 L13.6530833,55.6557968 L13.6769787,55.6636462 L16.3385594,52.0823871 L16.9673545,52.5497056 L13.5134672,57.1970436 Z" id="·WEBVERSION·WEBVERSION" fill-rule="nonzero"></path>
                </g>
            </g>
        </g>
    </g>
</svg>