<?xml version="1.0" encoding="UTF-8"?>
<svg width="1440px" height="900px" viewBox="0 0 1440 900" version="1.1" xmlns="http://www.w3.org/2000/svg" xmlns:xlink="http://www.w3.org/1999/xlink">
    <!-- Generator: Sketch 63.1 (92452) - https://sketch.com -->
    <title>Desktop - Home</title>
    <desc>Created with Sketch.</desc>
    <defs>
        <rect id="path-1" x="0" y="0" width="1172" height="57"></rect>
        <rect id="path-3" x="0" y="0" width="1172" height="57"></rect>
        <rect id="path-5" x="0" y="0" width="1172" height="57"></rect>
    </defs>
    <g id="Desktop---Home" stroke="none" stroke-width="1" fill="none" fill-rule="evenodd">
        <rect fill="#3B625C" x="0" y="0" width="1440" height="900"></rect>
        <g id="dd-pink-copy" transform="translate(675.000000, 0.000000)">
            <path d="M44.7993505,89.5999985 L44.7993505,89.5999985 C20.0577259,89.5999985 0,69.542563 0,44.7999992 C0,20.0574354 20.0577259,0 44.7993505,0 C69.5422726,0 89.5999985,20.0574354 89.5999985,44.7999992 C89.5999985,69.542563 69.5422726,89.5999985 44.7993505,89.5999985 Z" id="Stroke-1"></path>
            <path d="M31.8525725,53.1999991 L42.7701648,46.6951437 L42.7701648,22.2868157 L44.3183269,22.2868157 C53.107683,22.2868157 55.2307285,26.8691679 55.6511849,39.0192856 L66.4999989,32.5568951 C63.1233704,24.7922467 56.0716413,20.9999996 46.5685474,20.9999996 L25.8999996,20.9999996 L25.8999996,21.4761216 L31.8525725,21.4761216 L31.8525725,53.1999991 Z" id="Fill-3" fill="#F9BCBF"></path>
            <path d="M61.4750642,39.1856234 C61.6661337,40.498661 61.7708294,41.8622499 61.7826076,43.2802787 L61.7826076,47.1999487 C61.7577424,49.9737892 61.393925,52.5596826 60.6911555,54.9550365 C59.975299,57.3970531 58.8707599,59.5331696 57.3814642,61.3517202 C55.8790817,63.1871212 53.9840904,64.6349623 51.7148122,65.6887625 C49.4402992,66.745155 46.7757949,67.2791841 43.7160645,67.3038117 L36.9173907,67.3038117 L36.9173907,53.7106968 L34.2999994,55.2583443 L34.2999994,68.5999988 L44.221221,68.5999988 C47.4353775,68.5792598 50.2830991,68.0426383 52.7748556,66.9953191 C55.2600686,65.9505923 57.3500555,64.5027512 59.0539773,62.6479074 C60.7670598,60.7852864 62.0770642,58.5480673 62.9866076,55.9271769 C64.1186293,52.6698585 64.3659728,52.3108147 64.3999989,47.0962537 L64.3999989,43.4837801 C64.3882206,41.4695052 64.1788293,39.5835529 63.818938,37.7999994 L61.4750642,39.1856234 Z" id="Fill-5" fill="#F9BCBF"></path>
            <polygon id="Fill-7" stroke="#F9BCBF" fill="#F9BCBF" points="22.7387452 59.499999 22.3999996 58.9483599 22.6788133 58.7808059 75.2612531 27.2999995 75.5999987 27.8503498 75.321185 28.0179037"></polygon>
        </g>
        <text id="Workflow" stroke="#F9BCBF" font-family="Lust-Didone, Lust" font-size="16" font-weight="normal" line-spacing="19" letter-spacing="0.72876385" fill="#F9BCBF">
            <tspan x="1115.01733" y="56">Workflow</tspan>
        </text>
        <text id="Dunkelheit" stroke="#F9BCBF" font-family="Lust-Didone, Lust" font-size="16" font-weight="normal" line-spacing="19" letter-spacing="0.72876385" fill="#F9BCBF">
            <tspan x="53" y="51">Dunkelheit</tspan>
        </text>
        <text id="Contact" font-family="Rubik-Regular, Rubik" font-size="16" font-weight="normal" line-spacing="19" fill="#F9BCBF">
            <tspan x="1253.32" y="56">Contact</tspan>
        </text>
        <text id="&amp;-Draper" font-family="Rubik-Regular, Rubik" font-size="16" font-weight="normal" line-spacing="19" fill="#F9BCBF">
            <tspan x="161.416" y="51">&amp; Draper</tspan>
        </text>
        <text id="We-speak-design-&amp;-de" font-family="Rubik-Regular, Rubik" font-size="67.3946958" font-weight="normal" line-spacing="132.965773" letter-spacing="10.1092044" fill="#F9BCBF">
            <tspan x="1.12901716" y="875">WE SPEAK DESIGN </tspan>
            <tspan x="757.297504" y="875" font-family="Lust-Italic, Lust" font-style="italic">&amp;</tspan>
            <tspan x="824.961778" y="875"> DEVELOPMENT</tspan>
        </text>
        <g id="Group-4" transform="translate(1356.000000, 18.000000)" fill="#F9BCBF">
            <path d="M32.2392935,64 C48.9399941,64 65,47.8341274 65,31.1710929 C65,14.5080584 48.9399941,1 32.2392935,1 C15.5385928,1 2,14.5080584 2,31.1710929 C2,47.8341274 15.5385928,64 32.2392935,64 Z" id="Oval" fill-opacity="0.208123907"></path>
            <g id="Group" fill-rule="nonzero">
                <path d="M32.9936796,61.0324597 L32.2062681,61.0324597 L32.2062681,60.1893727 L32.9936796,60.1893727 L32.9936796,61.0324597 Z M37.8553776,60.6120171 L38.1830358,61.2662571 L38.2069474,61.2625973 L38.12744,60.5227549 L37.9560944,56.5944713 L38.6135786,56.3787545 L40.8102778,59.6425311 L41.1932572,60.2995476 L41.2159291,60.2921091 L41.0936762,59.5495497 L40.7333983,55.6832537 L41.4777914,55.4390226 L41.9565657,61.3758823 L41.2915243,61.5940787 L38.9549038,58.1334562 L38.6942515,57.6706873 L38.6715797,57.6781258 L38.7395211,58.204122 L38.8883062,62.3825609 L38.2232647,62.6007572 L35.0956603,57.5329635 L35.8362746,57.2899721 L37.8553776,60.6120171 Z M47.9611962,55.5130176 L45.7554617,56.9863531 L46.906298,58.7092732 L49.4493413,57.01063 L49.7895117,57.5199 L46.5949996,59.6536963 L43.3788429,54.8387796 L46.5369785,52.7292812 L46.8793578,53.2418582 L44.372691,54.9162035 L45.4130824,56.4737762 L47.6188169,55.0004406 L47.9611962,55.5130176 Z M52.613047,55.4305274 L48.3514719,51.5105701 L49.6303041,50.1202898 C50.0395325,49.6753978 50.4560095,49.4154951 50.8797477,49.3405737 C51.3034859,49.2656524 51.7075501,49.4049834 52.0919523,49.7585711 C52.2812265,49.9326726 52.3948577,50.1488633 52.4328493,50.4071496 C52.4708408,50.6654358 52.4352953,50.9263196 52.3262117,51.1898088 C52.6177693,50.9824959 52.929839,50.8958204 53.2624304,50.9297797 C53.5950217,50.9637391 53.8920487,51.1009724 54.1535203,51.3414838 C54.5437764,51.700456 54.7256145,52.1009604 54.69904,52.5430091 C54.6724656,52.9850578 54.459952,53.4226677 54.0614928,53.8558519 L52.613047,55.4305274 Z M51.1443491,53.0151008 L52.6926823,54.439316 L53.6107493,53.4412411 C53.8512607,53.1797695 53.9739417,52.9161855 53.9787962,52.6504812 C53.9836506,52.3847769 53.8670515,52.1424419 53.6289953,51.9234688 C53.3792314,51.6937266 53.1270421,51.5743223 52.8724198,51.5652525 C52.6177975,51.5561826 52.373824,51.6784791 52.1404921,51.9321456 L51.1443491,53.0151008 Z M50.6936055,52.6004899 L51.5524423,51.6668069 C51.7498771,51.4521661 51.8514894,51.2232353 51.8572823,50.9800079 C51.8630753,50.7367804 51.7606042,50.5182475 51.5498659,50.3244025 C51.3196148,50.1126088 51.0805593,50.0268988 50.8326922,50.0672698 C50.5848252,50.1076409 50.3352551,50.2644136 50.0839745,50.5375929 L49.3355212,51.3512728 L50.6936055,52.6004899 Z M59.3183504,43.4581241 L59.7929253,43.4921336 L59.8011293,43.4697273 L59.4167987,43.1892493 L55.8455148,40.2892591 L56.1367575,39.493838 L60.8342734,43.5049754 L60.6031935,44.1360842 L54.4262192,44.1655369 L54.7188292,43.3663814 L59.3183504,43.4581241 Z M60.2917467,34.533023 L59.997738,37.1692213 L62.0568973,37.3988743 L62.3958669,34.3595393 L63.0045244,34.4274213 L62.5787187,38.2453637 L56.8241389,37.6035695 L57.2450959,33.8291027 L57.8577057,33.8974256 L57.5235849,36.8932851 L59.3851282,37.1008984 L59.6791369,34.4647002 L60.2917467,34.533023 Z M60.6361223,30.4701497 L63.1245859,30.146852 L63.2255203,30.9237574 L57.4874624,31.6692379 L57.2174499,29.5909173 C57.1358138,28.9625541 57.2128197,28.4646411 57.4484697,28.0971633 C57.6841197,27.7296855 58.0674816,27.511451 58.5985668,27.4424531 C58.8930299,27.4041969 59.1593575,27.447795 59.3975578,27.5732488 C59.635758,27.6987026 59.838397,27.9002895 60.0054809,28.1780154 C60.0670283,27.8491979 60.2038583,27.6008342 60.415975,27.432917 C60.6280916,27.2649997 60.903725,27.1590112 61.2428834,27.1149482 L61.7831679,27.0447552 C61.9619491,27.0215282 62.1197621,26.9809743 62.2566118,26.9230923 C62.3934615,26.8652103 62.5002609,26.7818248 62.5770133,26.6729333 L62.6716616,26.6606368 L62.7756703,27.4612043 C62.699601,27.575354 62.5766855,27.6581598 62.4069199,27.7096242 C62.2371543,27.7610885 62.0602545,27.7987752 61.876215,27.8226853 L61.3517053,27.8908289 C61.0414674,27.9311346 60.8034874,28.0542874 60.6377583,28.260291 C60.4720292,28.4662946 60.4089768,28.7217823 60.4485993,29.026762 L60.6361223,30.4701497 Z M60.0248515,30.5495652 L59.8660206,29.3270236 C59.8089778,28.8879581 59.6844304,28.5826542 59.4923747,28.4111027 C59.300319,28.2395513 59.0334014,28.1759787 58.6916139,28.2203833 C58.3682303,28.2623968 58.1300201,28.3889214 57.976976,28.5999607 C57.8239319,28.8110001 57.7731994,29.1150149 57.824777,29.5120142 L57.9938551,30.8134294 L60.0248515,30.5495652 Z M59.5021315,20.6510461 C59.2557534,20.7489645 59.0861336,20.9233604 58.9932672,21.174239 C58.9004007,21.4251175 58.8908128,21.8083634 58.964503,22.3239882 C59.0551866,22.9469769 59.0321186,23.4703796 58.8952984,23.8942121 C58.7584781,24.3180445 58.4905057,24.6092703 58.091373,24.7678982 C57.6725302,24.9343595 57.2543813,24.9015554 56.836914,24.6694849 C56.4194467,24.4374144 56.1020283,24.0479052 55.8846494,23.5009457 C55.6506244,22.9121018 55.6257126,22.3792388 55.8099134,21.9023405 C55.9941142,21.4254423 56.3017751,21.1084579 56.7329052,20.951378 L56.7580167,20.9499566 L57.0341453,21.6447396 C56.7187813,21.7700752 56.5051536,21.9755125 56.3932559,22.2610576 C56.2813582,22.5466027 56.3027647,22.8840089 56.4574758,23.2732864 C56.6014159,23.6354623 56.7937368,23.8806922 57.0344442,24.0089833 C57.2751517,24.1372744 57.5273139,24.1490334 57.7909386,24.0442607 C58.0249978,23.9512381 58.1786349,23.7689298 58.2518543,23.4973302 C58.3250738,23.2257305 58.3273022,22.831145 58.2585395,22.3135619 C58.1737626,21.6910786 58.2093625,21.177673 58.3653401,20.7733298 C58.5213178,20.3689865 58.8013325,20.086526 59.2053927,19.9259398 C59.6390183,19.7536033 60.0581384,19.7924404 60.4627655,20.0424523 C60.8673927,20.2924641 61.183287,20.7032625 61.4104577,21.2748599 C61.6239199,21.8119643 61.6672939,22.3446221 61.5405811,22.8728493 C61.4138682,23.4010764 61.1041541,23.7559645 60.6114294,23.9375241 L60.5863179,23.9389454 L60.3101893,23.2441625 C60.6551188,23.1070766 60.8670803,22.8759122 60.9460804,22.5506623 C61.0250805,22.2254123 60.990163,21.8755451 60.841327,21.5010503 C60.6954285,21.1339469 60.5022786,20.8740688 60.2618713,20.7214084 C60.021464,20.5687481 59.76822,20.5452942 59.5021315,20.6510461 Z M58.6087311,15.2712105 L59.0386841,15.930875 L54.1878178,19.0925493 L53.7578649,18.4328848 L58.6087311,15.2712105 Z M51.4755453,10.4964445 C51.9772086,9.99701898 52.5481584,9.73818344 53.1884118,9.71993015 C53.8286653,9.70167687 54.3956905,9.94055995 54.8895045,10.4365866 C55.366484,10.9157032 55.5888012,11.4696992 55.5564628,12.0985914 C55.5241244,12.7274835 55.2571275,13.2916339 54.7554642,13.7910594 L54.0255196,14.517748 C53.5257352,15.0153031 52.9603969,15.2797752 52.3294876,15.3111724 C51.6985783,15.3425695 51.1446422,15.1187131 50.6676627,14.6395965 C50.1738487,14.1435699 49.9379726,13.5750147 49.9600274,12.933914 C49.9820823,12.2928133 50.2439374,11.7225587 50.7456007,11.2231332 L51.4755453,10.4964445 Z M51.2926963,11.7839535 C50.9169186,12.1580551 50.7097913,12.5662722 50.6713084,13.0086172 C50.6328255,13.4509621 50.783798,13.8431076 51.1242304,14.1850654 C51.4459577,14.5082342 51.8229281,14.6463971 52.2551529,14.5995582 C52.6873777,14.5527193 53.091373,14.3422523 53.4671507,13.9681507 L54.2027319,13.2358506 C54.5822675,12.858008 54.7964174,12.4530873 54.8451881,12.0210762 C54.8939588,11.5890651 54.7574825,11.2114808 54.4357552,10.8883119 C54.0934523,10.5444753 53.7019877,10.3908139 53.2613498,10.4273231 C52.8207119,10.4638323 52.409692,10.6719403 52.0282776,11.0516534 L51.2926963,11.7839535 Z M46.5973501,4.08751511 L47.2744355,4.48162828 L47.4311128,9.75407238 L47.4557358,9.75920186 L49.7043815,5.89603445 L50.3814669,6.29014762 L47.4686305,11.294393 L46.7915451,10.9002798 L46.6308666,5.63470965 L46.6062436,5.62958017 L44.361599,9.48587362 L43.6845136,9.09176044 L46.5973501,4.08751511 Z M37.4947869,3.16760563 L38.2707834,3.30119549 L38.1277478,4.13206042 L37.3517513,3.99847056 L37.4947869,3.16760563 Z M28.5493196,2.39096493 L28.2979484,1.70379501 L28.273776,1.7047203 L28.2688913,2.44880648 L27.9937634,6.37118792 L27.3160616,6.51097165 L25.5035564,3.0191884 L25.1975355,2.32298791 L25.1741665,2.32780803 L25.2114435,3.07944002 L25.1310575,6.96165371 L24.3637744,7.11991461 L24.5611779,1.16705306 L25.2466694,1.02566261 L27.1758762,4.72888607 L27.3823815,5.21822261 L27.4057505,5.21340249 L27.397882,4.68309485 L27.7237863,0.514728942 L28.4092778,0.373338493 L30.9421557,5.76304831 L30.1787674,5.92050586 L28.5493196,2.39096493 Z M17.9398136,6.31893795 L20.2970035,5.1025342 L19.3468591,3.26131089 L16.6291993,4.6637314 L16.3483505,4.11949264 L19.7622117,2.35780446 L22.4175099,7.5033345 L19.0425228,9.24496205 L18.7598503,8.69718928 L21.4386358,7.3148294 L20.579676,5.65030697 L18.2224861,6.86671072 L17.9398136,6.31893795 Z M13.3124061,5.87551474 L17.1100611,10.2464304 L15.6841099,11.4853632 C15.2278032,11.8818237 14.7849308,12.0936411 14.3554794,12.1208218 C13.9260281,12.1480024 13.5400303,11.964463 13.1974745,11.5701981 C13.0288049,11.3760676 12.9400017,11.1485496 12.9310622,10.8876373 C12.9221226,10.626725 12.9865509,10.3714352 13.1243489,10.1217604 C12.8114832,10.2952525 12.4916919,10.3465719 12.1649653,10.2757201 C11.8382387,10.2048683 11.5583759,10.0353549 11.3253684,9.76717463 C10.977596,9.36690562 10.841574,8.94861514 10.9172983,8.51229065 C10.9930226,8.07596616 11.2530301,7.66479643 11.6973287,7.27876913 L13.3124061,5.87551474 Z M14.5024665,8.43971354 L13.1226866,6.8516542 L12.0990038,7.74107752 C11.8308235,7.97408499 11.6795024,8.22233704 11.6450358,8.48584111 C11.6105693,8.74934518 11.6994052,9.00317546 11.9115463,9.24733955 C12.1341206,9.50351172 12.3714147,9.65030526 12.6234357,9.68772459 C12.8754566,9.72514392 13.1315507,9.63082899 13.3917256,9.40477697 L14.5024665,8.43971354 Z M14.9041416,8.90202193 L13.9465027,9.7340631 C13.7263548,9.92533789 13.5998369,10.1415035 13.5669452,10.3825663 C13.5340535,10.6236291 13.6115051,10.8522297 13.7993021,11.068375 C14.0044878,11.3045337 14.232489,11.4163781 14.4833127,11.4039116 C14.7341363,11.3914451 14.9996382,11.2634935 15.2798266,11.0200528 L16.1143833,10.2949511 L14.9041416,8.90202193 Z M5.30125117,17.0284415 L4.83355993,16.9410182 L4.82287634,16.9623537 L5.17304806,17.2844681 L8.39372588,20.5694714 L8.01445833,21.3268836 L3.80033413,16.8105758 L4.10125533,16.2096243 L10.2419874,16.8784203 L9.8609393,17.6393884 L5.30125117,17.0284415 Z M3.32987327,25.7855557 L3.91841859,23.1991302 L1.8981372,22.7394119 L1.21958946,25.7213627 L0.622423751,25.5854767 L1.47479972,21.8396191 L7.12073004,23.1243596 L6.27806022,26.8275626 L5.67701681,26.6907942 L6.34585841,23.751498 L4.51946199,23.3358986 L3.93091668,25.9223241 L3.32987327,25.7855557 Z M2.53398083,29.7709233 L0.0249844337,29.8146223 L0.0113414781,29.0313064 L5.79674521,28.9305425 L5.83324184,31.0260117 C5.8442763,31.6595597 5.71221028,32.1457755 5.43703982,32.4846738 C5.16186935,32.8235721 4.75655655,32.9976818 4.22108924,33.007008 C3.92419648,33.0121789 3.66439417,32.9391448 3.44167452,32.7879034 C3.21895487,32.636662 3.04006696,32.4137294 2.90500542,32.1190989 C2.80716343,32.4389989 2.6434831,32.6705496 2.41395951,32.8137579 C2.18443593,32.9569662 1.8987,33.0315471 1.55674316,33.037503 L1.01200067,33.0469907 C0.831744353,33.0501302 0.67039252,33.0728274 0.527940333,33.115083 C0.385488147,33.1573385 0.270053837,33.2282905 0.18163394,33.3279409 L0.0862046002,33.329603 L0.0721461231,32.5224298 C0.160473681,32.4174777 0.291858891,32.3488996 0.466305693,32.3166933 C0.640752496,32.284487 0.820752186,32.2667682 1.00631016,32.2635364 L1.53514775,32.2543256 C1.84794549,32.2488777 2.09817758,32.1530394 2.28585153,31.9668081 C2.47352548,31.7805768 2.56468328,31.5337168 2.55932764,31.2262207 L2.53398083,29.7709233 Z M3.15029531,29.760189 L3.17176392,30.9928179 C3.1794742,31.4355062 3.2691885,31.7527977 3.44090954,31.9447018 C3.61263058,32.136606 3.87079106,32.2295556 4.21539873,32.2235536 C4.5414506,32.2178748 4.79228768,32.1187115 4.96791748,31.9260609 C5.14354729,31.7334103 5.22787514,31.4369518 5.22090358,31.0366768 L5.1980499,29.7245234 L3.15029531,29.760189 Z M2.56178577,39.6781286 C2.81764983,39.608675 3.00588807,39.454561 3.12650614,39.2157817 C3.2471242,38.9770025 3.29995301,38.5972941 3.28499415,38.0766451 C3.26528162,37.4473996 3.34734021,36.929955 3.53117238,36.5242957 C3.71500455,36.1186364 4.01416604,35.8595533 4.42866583,35.7470385 C4.86363474,35.6289674 5.27539941,35.7088073 5.66397219,35.9865606 C6.05254496,36.2643139 6.32392075,36.6871933 6.47810769,37.2552115 C6.64410174,37.8667267 6.60864674,38.3989922 6.37174162,38.852024 C6.13483651,39.3050558 5.79333032,39.5852483 5.3472128,39.6926098 L5.32210155,39.6911847 L5.12624344,38.9696516 C5.45374945,38.880751 5.68922109,38.7007667 5.83266543,38.4296933 C5.97610977,38.1586198 5.99296336,37.8209555 5.88322671,37.4166903 C5.78112995,37.0405701 5.61774869,36.7751807 5.39307803,36.620514 C5.16840737,36.4658474 4.9191885,36.4256723 4.64541395,36.4999876 C4.40234308,36.5659685 4.22909118,36.7297502 4.12565304,36.9913377 C4.0222149,37.2529252 3.97541732,37.6447321 3.9852589,38.1667702 C3.99915961,38.7948461 3.90577895,39.3009416 3.70511413,39.685072 C3.50444931,40.0692023 3.19431301,40.3182157 2.77469594,40.4321196 C2.32437519,40.5543578 1.91232714,40.4684138 1.53853943,40.1742849 C1.16475173,39.880156 0.897295742,39.4362958 0.736163443,38.8426912 C0.584754645,38.2849075 0.601842419,37.75076 0.787427276,37.2402324 C0.973012134,36.7297049 1.32084111,36.4120834 1.83092464,36.2873586 L1.85603589,36.2887837 L2.051894,37.0103167 C1.6936843,37.1075517 1.45696122,37.3132867 1.34171763,37.6275278 C1.22647405,37.9417689 1.22163705,38.2933409 1.32720648,38.6822542 C1.43069231,39.0634917 1.59324228,39.3435292 1.81486125,39.5223752 C2.03648022,39.7012212 2.28545257,39.7531385 2.56178577,39.6781286 Z M2.84348574,45.1208492 L2.490392,44.4170441 L7.66584767,41.8205568 L8.01894141,42.5243619 L2.84348574,45.1208492 Z M9.39449368,50.6575179 C8.84021092,51.0978162 8.24393405,51.2912933 7.60564517,51.2379551 C6.96735629,51.1846169 6.43054435,50.8839249 5.99519324,50.3358701 C5.57468365,49.8064989 5.41560388,49.2311467 5.51794916,48.6097961 C5.62029444,47.9884456 5.94860353,47.4576291 6.50288629,47.0173308 L7.30939481,46.3766753 C7.8616016,45.9380261 8.45293138,45.7383211 9.08340188,45.7775545 C9.71387238,45.8167878 10.2393545,46.1010858 10.6598641,46.630457 C11.0952152,47.1785119 11.2661438,47.7698459 11.1726549,48.4044767 C11.0791659,49.0391076 10.755285,49.5765641 10.2010022,50.0168624 L9.39449368,50.6575179 Z M9.71993609,49.3984705 C10.1351292,49.0686591 10.3865346,48.6861173 10.47416,48.2508337 C10.5617854,47.8155501 10.4555355,47.4090016 10.1554071,47.0311759 C9.87176923,46.6741099 9.51257973,46.494726 9.07782779,46.4929927 C8.64307586,46.4913117 8.21810972,46.6553614 7.80291665,46.9851729 L6.99018026,47.6307755 C6.57083526,47.9638851 6.31281902,48.3423671 6.21612382,48.7662329 C6.11942861,49.1900986 6.21289853,49.5805587 6.49653637,49.9376247 C6.79831385,50.3175264 7.17017662,50.51393 7.61213586,50.5268415 C8.0540951,50.539753 8.48577873,50.3788318 8.9071997,50.0440732 L9.71993609,49.3984705 Z M13.5248087,57.5703821 L12.8960137,57.1030636 L13.3295941,51.8461422 L13.3056986,51.8382928 L10.6393736,55.4259356 L10.0105785,54.9586171 L13.4644658,50.3112791 L14.0932608,50.7785976 L13.6644247,56.0291353 L13.6883202,56.0369846 L16.3499009,52.4557256 L16.978696,52.9230441 L13.5248087,57.5703821 Z" id="·WEBVERSION·WEBVERSION"></path>
            </g>
            <text id="0.8" font-family="Lust-Didone, Lust" font-size="17.7835386" font-weight="normal">
                <tspan x="17.1664679" y="38">0.8</tspan>
            </text>
        </g>
        <g id="Group-2" transform="translate(127.000000, 432.000000)">
            <mask id="mask-2" fill="white">
                <use xlink:href="#path-1"></use>
            </mask>
            <use id="Rectangle" fill="#3B625C" xlink:href="#path-1"></use>
            <text id="Research,Design,-Imp-Copy" stroke="#F9BCBF" stroke-width="0.5" fill="#3B625C" mask="url(#mask-2)" font-family="Rubik-Regular, Rubik" font-size="60.848704" font-weight="normal" line-spacing="114" letter-spacing="1.64905496">
                <tspan x="5" y="57">Research,</tspan>
                <tspan x="299.44129" y="57" font-family="Lust-Didone, Lust">Design, </tspan>
                <tspan x="561.44408" y="57">Implement,</tspan>
                <tspan x="896.355898" y="57" font-family="Lust-Didone, Lust"> Repeat.</tspan>
            </text>
        </g>
        <g id="Group-2-Copy" transform="translate(127.000000, 398.000000)">
            <mask id="mask-4" fill="white">
                <use xlink:href="#path-3"></use>
            </mask>
            <use id="Rectangle" fill="#3B625C" xlink:href="#path-3"></use>
            <text id="Research,Design,-Imp-Copy" stroke="#F9BCBF" stroke-width="0.5" fill="#3B625C" mask="url(#mask-4)" font-family="Rubik-Regular, Rubik" font-size="60.848704" font-weight="normal" line-spacing="114" letter-spacing="1.64905496">
                <tspan x="5" y="57">Research,</tspan>
                <tspan x="299.44129" y="57" font-family="Lust-Didone, Lust">Design, </tspan>
                <tspan x="561.44408" y="57">Implement,</tspan>
                <tspan x="896.355898" y="57" font-family="Lust-Didone, Lust"> Repeat.</tspan>
            </text>
        </g>
        <g id="Group-2-Copy-2" transform="translate(127.000000, 364.000000)">
            <mask id="mask-6" fill="white">
                <use xlink:href="#path-5"></use>
            </mask>
            <use id="Rectangle" fill="#3B625C" xlink:href="#path-5"></use>
            <text id="Research,Design,-Imp-Copy" stroke="#F9BCBF" stroke-width="0.5" fill="#3B625C" mask="url(#mask-6)" font-family="Rubik-Regular, Rubik" font-size="60.848704" font-weight="normal" line-spacing="114" letter-spacing="1.64905496">
                <tspan x="5" y="57">Research,</tspan>
                <tspan x="299.44129" y="57" font-family="Lust-Didone, Lust">Design, </tspan>
                <tspan x="561.44408" y="57">Implement,</tspan>
                <tspan x="896.355898" y="57" font-family="Lust-Didone, Lust"> Repeat.</tspan>
            </text>
        </g>
        <text id="Research,Design,-Imp" stroke="#F9BCBF" stroke-width="0.5" font-family="Rubik-Regular, Rubik" font-size="60.848704" font-weight="normal" line-spacing="114" letter-spacing="1.64905496" fill="#F9BCBF">
            <tspan x="131" y="523">Research,</tspan>
            <tspan x="425.44129" y="523" font-family="Lust-Didone, Lust">Design, </tspan>
            <tspan x="687.44408" y="523">Implement,</tspan>
            <tspan x="1022.3559" y="523" font-family="Lust-Didone, Lust"> Repeat.</tspan>
        </text>
        <g id="Group-3" transform="translate(13.000000, 797.000000)" fill="#F9BCBF" font-family="Rubik-Light, Rubik" font-size="16" font-weight="300" letter-spacing="0.433614484" line-spacing="36.344118">
            <text id="Interaction-Design" transform="translate(690.000000, 18.500000) rotate(-360.000000) translate(-690.000000, -18.500000) ">
                <tspan x="620" y="15">Interaction Design</tspan>
            </text>
            <text id="Animation" transform="translate(818.000000, 18.500000) rotate(-360.000000) translate(-818.000000, -18.500000) ">
                <tspan x="779" y="15">Animation</tspan>
            </text>
            <text id="User-Experience" transform="translate(950.000000, 18.500000) rotate(-360.000000) translate(-950.000000, -18.500000) ">
                <tspan x="888" y="15">User Experience</tspan>
            </text>
            <text id="Visual-Design" transform="translate(1083.500000, 18.500000) rotate(-360.000000) translate(-1083.500000, -18.500000) ">
                <tspan x="1032" y="15">Visual Design</tspan>
            </text>
            <text id="User-Interface" transform="translate(1224.500000, 18.500000) rotate(-360.000000) translate(-1224.500000, -18.500000) ">
                <tspan x="1168" y="15">User Interface </tspan>
            </text>
            <text id="Mobile-&amp;-Web" transform="translate(1364.500000, 18.500000) rotate(-360.000000) translate(-1364.500000, -18.500000) ">
                <tspan x="1314" y="15">Mobile &amp; Web</tspan>
            </text>
            <text id="Art-Direction" transform="translate(165.500000, 18.500000) rotate(-360.000000) translate(-165.500000, -18.500000) ">
                <tspan x="117" y="15">Art Direction</tspan>
            </text>
            <text id="Photography" transform="translate(49.500000, 18.500000) rotate(-360.000000) translate(-49.500000, -18.500000) ">
                <tspan x="0" y="15">Photography</tspan>
            </text>
            <text id="UX-writing" transform="translate(275.500000, 18.500000) rotate(-360.000000) translate(-275.500000, -18.500000) ">
                <tspan x="236" y="15">UX writing</tspan>
            </text>
            <text id="Storytelling" transform="translate(379.000000, 18.500000) rotate(-360.000000) translate(-379.000000, -18.500000) ">
                <tspan x="335" y="15">Storytelling</tspan>
            </text>
            <text id="Creative-copywriting" transform="translate(521.500000, 18.500000) rotate(-360.000000) translate(-521.500000, -18.500000) ">
                <tspan x="443" y="15">Creative copywriting</tspan>
            </text>
        </g>
    </g>
</svg>