<?xml version="1.0" encoding="UTF-8"?>
<svg width="109px" height="109px" viewBox="0 0 109 109" version="1.1" xmlns="http://www.w3.org/2000/svg" xmlns:xlink="http://www.w3.org/1999/xlink">
    <!-- Generator: Sketch 64 (93537) - https://sketch.com -->
    <title>Artboard</title>
    <desc>Created with Sketch.</desc>
    <g id="Artboard" stroke="none" stroke-width="1" fill="none" fill-rule="evenodd">
        <g id="dd-pink-copy" transform="translate(1.000000, 1.000000)">
            <path d="M53.4992253,107 L53.4992253,107 C23.952865,107 0,83.0474818 0,53.5 C0,23.9525182 23.952865,0 53.4992253,0 C83.047135,0 107,23.9525182 107,53.5 C107,83.0474818 83.047135,107 53.4992253,107 Z" id="Stroke-1"></path>
            <path d="M38.0375248,63 L50.9450233,55.3234624 L50.9450233,26.5186029 L52.7753628,26.5186029 C63.1667199,26.5186029 65.6767244,31.9263478 66.1738158,46.2649962 L79,38.6385725 C75.0079269,29.4753227 66.6709071,25 55.435722,25 L31,25 L31,25.5618831 L38.0375248,25.5618831 L38.0375248,63 Z" id="Fill-3" fill="#3B625C"></path>
            <path d="M73.5017391,46.6645484 C73.7302609,48.2418988 73.8554783,49.8799764 73.8695652,51.5834526 L73.8695652,56.2921471 C73.8398261,59.6243582 73.4046957,62.7307887 72.5641739,65.6083242 C71.708,68.5419157 70.3869565,71.1080296 68.6057391,73.2926521 C66.8088696,75.497517 64.5424348,77.2368067 61.8283478,78.5027355 C59.108,79.7717785 55.9212174,80.413307 52.2617391,80.442892 L44.1304348,80.442892 L44.1304348,64.1135005 L41,65.9726875 L41,82 L52.865913,82 C56.710087,81.9750863 60.116,81.3304436 63.0961739,80.0723003 C66.0685217,78.8172713 68.5681739,77.0779817 70.606087,74.8497601 C72.6549565,72.6121959 74.2217391,69.9246276 75.3095652,66.7761552 C76.6634783,62.8631428 76.9593043,62.4318239 77,56.1675785 L77,51.8279185 C76.985913,49.4081727 76.7354783,47.1425806 76.3050435,45 L73.5017391,46.6645484 Z" id="Fill-5" fill="#3B625C"></path>
            <polygon id="Fill-7" stroke="#3B625C" fill="#3B625C" points="27.4011461 71 27 70.3489973 27.3301741 70.1512629 89.5988539 33 90 33.6494816 89.6698259 33.8472161"></polygon>
        </g>
    </g>
</svg>