<?xml version="1.0" encoding="UTF-8"?>
<svg width="175px" height="17px" viewBox="0 0 175 17" version="1.1" xmlns="http://www.w3.org/2000/svg" xmlns:xlink="http://www.w3.org/1999/xlink">
    <title>dunkelheitdraper</title>
    <g id="Web-2.0" stroke="none" stroke-width="1" fill="none" fill-rule="evenodd">
        <g id="Desktop---Home" transform="translate(-52.000000, -38.000000)" fill="#F9BCBF" fill-rule="nonzero">
            <g id="dunkelheitdraper" transform="translate(53.000000, 38.000000)">
                <path d="M6.736,13 C10.496,13 12.512,10.584 12.512,7.368 C12.512,3.608 10.016,1.8 6.08,1.8 L0.08,1.8 L0.08,1.912 L1.808,1.912 L1.808,12.888 L0.08,12.888 L0.08,13 L6.736,13 Z M6.176,12.888 L5.104,12.888 L5.104,1.912 L5.568,1.912 C8.624,1.912 8.992,3.368 8.992,7.4 C8.992,11.8 8,12.888 6.176,12.888 Z M21.8167639,13.112 C22.9687639,13.112 23.8807639,12.52 24.6167639,11.896 L24.5527639,11.816 C23.4167639,12.76 23.1127639,11.896 23.1127639,11.08 L23.1127639,4.488 L18.9367639,5.048 L18.9527639,5.16 L20.1527639,5 L20.1527639,10.296 C20.1527639,11.24 19.4807639,12.44 18.6007639,12.44 C17.7687639,12.44 17.7367639,11.464 17.7367639,10.84 L17.7367639,4.488 L13.2407639,5.096 L13.2567639,5.208 L14.7767639,5.016 L14.7767639,10.76 C14.7767639,12.328 15.8807639,13.112 17.2887639,13.112 C18.7447639,13.112 19.8647639,12.152 20.1687639,11 C20.1047639,12.248 20.8247639,13.112 21.8167639,13.112 Z M30.5455277,13 L30.5455277,12.888 L29.6655277,12.888 L29.6655277,7.304 C29.6655277,6.36 30.3375277,5.16 31.2175277,5.16 C32.0033055,5.16 32.075503,6.0305679 32.0810997,6.65296845 L32.0815277,12.888 L31.2175277,12.888 L31.2175277,13 L36.4335277,13 L36.4335277,12.888 L35.0415277,12.888 L35.0415277,6.84 C35.0415277,5.272 33.9375277,4.488 32.5295277,4.488 C31.0735277,4.488 29.9535277,5.448 29.6495277,6.6 L29.6975277,4.488 L25.0895277,5.096 L25.1055277,5.208 L26.7055277,5 L26.7055277,12.888 L25.3135277,12.888 L25.3135277,13 L30.5455277,13 Z M46.6822916,13.112 C47.4982916,13.112 48.1542916,13.048 48.9702916,13 L48.9702916,12.888 C48.1542916,12.92 47.9942916,12.776 47.1942916,10.728 C46.5702916,9.16 45.6102916,6.376 41.8822916,8.232 L45.7222916,4.712 L47.5462916,4.712 L47.5462916,4.6 L43.4982916,4.6 L43.4982916,4.712 L45.5142916,4.712 L41.7382916,8.168 L41.7382916,0.36 L37.1622916,0.968 L37.1782916,1.08 L38.7782916,0.872 L38.7782916,12.888 L37.3862916,12.888 L37.3862916,13 L42.6182916,13 L42.6182916,12.888 L41.7382916,12.888 L41.7382916,8.408 C43.2902916,7.592 43.5142916,9.896 43.8342916,10.904 C44.4102916,12.792 44.6662916,13.112 46.6822916,13.112 Z M53.2510554,13.112 C55.5550554,13.112 57.1070554,11.528 57.8910554,9.816 L57.7950554,9.768 C57.2990554,10.936 56.1790554,11.896 55.0590554,11.896 C52.9150554,11.896 52.3710554,9.48 52.3390554,7.88 L57.5390554,7.88 C58.0510554,5.848 56.5950554,4.488 53.9550554,4.488 C51.0750554,4.488 49.1390554,6.312 49.1390554,8.936 C49.1390554,11.48 50.9630554,13.112 53.2510554,13.112 Z M54.7070554,7.72 L52.3390554,7.72 C52.3390554,6.344 52.5470554,4.6 53.8270554,4.6 C54.9630554,4.6 54.9630554,6.728 54.7070554,7.72 Z M64.7478193,13 L64.7478193,12.888 L63.3558193,12.888 L63.3558193,0.36 L58.7798193,0.968 L58.7958193,1.08 L60.3958193,0.872 L60.3958193,12.888 L59.0038193,12.888 L59.0038193,13 L64.7478193,13 Z M70.9325831,13 L70.9325831,12.888 L70.0525831,12.888 L70.0525831,7.304 C70.0525831,6.36 70.7245831,5.16 71.6045831,5.16 C72.3903609,5.16 72.4625584,6.0305679 72.4681551,6.65296845 L72.4685831,12.888 L71.6045831,12.888 L71.6045831,13 L76.8205831,13 L76.8205831,12.888 L75.4285831,12.888 L75.4285831,6.84 C75.4285831,5.272 74.3245831,4.488 72.9165831,4.488 C71.4605831,4.488 70.3405831,5.448 70.0365831,6.6 L70.0845831,0.36 L65.4765831,0.968 L65.4925831,1.08 L67.0925831,0.872 L67.0925831,12.888 L65.7005831,12.888 L65.7005831,13 L70.9325831,13 Z M82.141347,13.112 C84.445347,13.112 85.997347,11.528 86.781347,9.816 L86.685347,9.768 C86.189347,10.936 85.069347,11.896 83.949347,11.896 C81.805347,11.896 81.261347,9.48 81.229347,7.88 L86.429347,7.88 C86.941347,5.848 85.485347,4.488 82.845347,4.488 C79.965347,4.488 78.029347,6.312 78.029347,8.936 C78.029347,11.48 79.853347,13.112 82.141347,13.112 Z M83.597347,7.72 L81.229347,7.72 C81.229347,6.344 81.437347,4.6 82.717347,4.6 C83.853347,4.6 83.853347,6.728 83.597347,7.72 Z M90.7581108,3.816 C91.7181108,3.816 92.4861108,3.032 92.4861108,2.072 C92.4861108,1.112 91.7181108,0.36 90.7581108,0.36 C89.8141108,0.36 89.0301108,1.128 89.0301108,2.072 C89.0301108,3.032 89.8141108,3.816 90.7581108,3.816 Z M93.6381108,13 L93.6381108,12.888 L92.2461108,12.888 L92.2461108,4.488 L87.6701108,5.096 L87.6861108,5.208 L89.2861108,5 L89.2861108,12.888 L87.8941108,12.888 L87.8941108,13 L93.6381108,13 Z M97.4708747,13.112 C98.8468747,13.112 99.9508747,12.392 100.830875,11.64 L100.766875,11.56 C100.414875,11.832 100.030875,12.152 99.5988747,12.152 C98.7188747,12.152 98.7028747,11.032 98.7028747,10.408 L98.7028747,4.712 L100.462875,4.712 L100.462875,4.6 L98.7028747,4.6 L98.7028747,1.4 L98.5908747,1.4 C98.5908747,2.344 98.3188747,3.16 97.8388747,3.768 C97.1668747,4.328 96.1748747,4.6 94.8628747,4.6 L94.5268747,4.6 L94.5268747,4.712 L95.7428747,4.712 L95.7428747,10.856 C95.7428747,12.104 96.3668747,13.112 97.4708747,13.112 Z" id="Dunkelheit" stroke="#F9BCBF" stroke-width="0.2"></path>
                <path d="M112.992,13.16 C114.357333,13.16 115.509333,12.7013333 116.448,11.784 L116.448,11.784 L117.504,12.84 C117.610667,12.9466667 117.754667,13 117.936,13 L117.936,13 L118.784,13 C118.986667,13 119.088,12.8986667 119.088,12.696 C119.088,12.6 119.045333,12.52 118.96,12.456 L118.96,12.456 L117.328,10.84 C117.722667,10.2746667 118.029333,9.69333333 118.248,9.096 C118.466667,8.49866667 118.586667,7.96 118.608,7.48 C118.608,7.384 118.576,7.304 118.512,7.24 C118.448,7.176 118.368,7.144 118.272,7.144 L118.272,7.144 L117.616,7.144 C117.509333,7.144 117.426667,7.17333333 117.368,7.232 C117.309333,7.29066667 117.274667,7.368 117.264,7.464 C117.114667,8.40266667 116.826667,9.224 116.4,9.928 L116.4,9.928 L113.648,7.224 C114.437333,6.776 115.042667,6.33066667 115.464,5.888 C115.885333,5.44533333 116.096,4.89866667 116.096,4.248 C116.096,3.75733333 115.973333,3.31466667 115.728,2.92 C115.482667,2.52533333 115.136,2.21333333 114.688,1.984 C114.24,1.75466667 113.733333,1.64 113.168,1.64 C112.581333,1.64 112.061333,1.76 111.608,2 C111.154667,2.24 110.805333,2.56 110.56,2.96 C110.314667,3.36 110.192,3.79466667 110.192,4.264 C110.192,4.712 110.296,5.136 110.504,5.536 C110.712,5.936 111.072,6.408 111.584,6.952 C110.869333,7.368 110.314667,7.81333333 109.92,8.288 C109.525333,8.76266667 109.328,9.336 109.328,10.008 C109.328,10.616 109.482667,11.16 109.792,11.64 C110.101333,12.12 110.533333,12.4933333 111.088,12.76 C111.642667,13.0266667 112.277333,13.16 112.992,13.16 Z M112.784,6.312 C112.314667,5.82133333 111.997333,5.432 111.832,5.144 C111.666667,4.856 111.584,4.568 111.584,4.28 C111.584,3.85333333 111.738667,3.50666667 112.048,3.24 C112.357333,2.97333333 112.725333,2.84 113.152,2.84 C113.610667,2.84 113.989333,2.97066667 114.288,3.232 C114.586667,3.49333333 114.736,3.84266667 114.736,4.28 C114.736,4.696 114.570667,5.05333333 114.24,5.352 C113.909333,5.65066667 113.424,5.97066667 112.784,6.312 Z M112.992,11.912 C112.373333,11.912 111.842667,11.7386667 111.4,11.392 C110.957333,11.0453333 110.736,10.5733333 110.736,9.976 C110.736,9.528 110.885333,9.144 111.184,8.824 C111.482667,8.504 111.909333,8.18933333 112.464,7.88 L112.464,7.88 L115.504,10.824 C115.152,11.1866667 114.757333,11.4586667 114.32,11.64 C113.882667,11.8213333 113.44,11.912 112.992,11.912 Z M128.88,13 C129.957333,13 130.821333,12.8453333 131.472,12.536 C132.122667,12.2266667 132.6,11.7546667 132.904,11.12 C133.208,10.4853333 133.370667,9.66133333 133.392,8.648 C133.402667,8.328 133.408,7.90666667 133.408,7.384 C133.408,6.86133333 133.402667,6.44533333 133.392,6.136 C133.370667,4.68533333 133.002667,3.6 132.288,2.88 C131.573333,2.16 130.410667,1.8 128.8,1.8 L128.8,1.8 L125.184,1.8 C125.077333,1.8 124.992,1.83466667 124.928,1.904 C124.864,1.97333333 124.832,2.06666667 124.832,2.184 L124.832,2.184 L124.832,12.632 C124.832,12.7386667 124.864,12.8266667 124.928,12.896 C124.992,12.9653333 125.077333,13 125.184,13 L125.184,13 L128.88,13 Z M128.8,11.672 L126.336,11.672 L126.336,3.112 L128.72,3.112 C129.829333,3.112 130.626667,3.36 131.112,3.856 C131.597333,4.352 131.850667,5.13333333 131.872,6.2 C131.893333,6.81866667 131.904,7.21333333 131.904,7.384 C131.904,7.544 131.893333,7.944 131.872,8.584 C131.850667,9.34133333 131.741333,9.94133333 131.544,10.384 C131.346667,10.8266667 131.026667,11.152 130.584,11.36 C130.141333,11.568 129.546667,11.672 128.8,11.672 L128.8,11.672 Z M136.72,13 C136.826667,13 136.917333,12.9653333 136.992,12.896 C137.066667,12.8266667 137.104,12.7386667 137.104,12.632 L137.104,12.632 L137.104,7.912 C137.104,7.32533333 137.272,6.86133333 137.608,6.52 C137.944,6.17866667 138.405333,6.008 138.992,6.008 L138.992,6.008 L139.904,6.008 C140.021333,6.008 140.112,5.97333333 140.176,5.904 C140.24,5.83466667 140.272,5.74666667 140.272,5.64 L140.272,5.64 L140.272,5.048 C140.272,4.93066667 140.24,4.84 140.176,4.776 C140.112,4.712 140.021333,4.68 139.904,4.68 L139.904,4.68 L139.28,4.68 C138.234667,4.68 137.493333,5.04266667 137.056,5.768 L137.056,5.768 L137.056,5.064 C137.056,4.94666667 137.021333,4.85333333 136.952,4.784 C136.882667,4.71466667 136.789333,4.68 136.672,4.68 L136.672,4.68 L136,4.68 C135.893333,4.68 135.805333,4.71733333 135.736,4.792 C135.666667,4.86666667 135.632,4.95733333 135.632,5.064 L135.632,5.064 L135.632,12.632 C135.632,12.7386667 135.666667,12.8266667 135.736,12.896 C135.805333,12.9653333 135.893333,13 136,13 L136,13 L136.72,13 Z M143.824,13.16 C144.528,13.16 145.104,13.0426667 145.552,12.808 C146,12.5733333 146.341333,12.28 146.576,11.928 L146.576,11.928 L146.576,12.632 C146.576,12.7386667 146.608,12.8266667 146.672,12.896 C146.736,12.9653333 146.821333,13 146.928,13 L146.928,13 L147.632,13 C147.738667,13 147.826667,12.9653333 147.896,12.896 C147.965333,12.8266667 148,12.7386667 148,12.632 L148,12.632 L148,7.432 C148,6.6 147.741333,5.90666667 147.224,5.352 C146.706667,4.79733333 145.850667,4.52 144.656,4.52 C143.962667,4.52 143.376,4.64 142.896,4.88 C142.416,5.12 142.061333,5.40266667 141.832,5.728 C141.602667,6.05333333 141.488,6.33866667 141.488,6.584 C141.488,6.68 141.522667,6.76266667 141.592,6.832 C141.661333,6.90133333 141.744,6.936 141.84,6.936 L141.84,6.936 L142.464,6.936 C142.549333,6.936 142.616,6.91733333 142.664,6.88 C142.712,6.84266667 142.757333,6.77066667 142.8,6.664 C142.938667,6.39733333 143.157333,6.16533333 143.456,5.968 C143.754667,5.77066667 144.149333,5.672 144.64,5.672 C145.909333,5.672 146.544,6.22133333 146.544,7.32 L146.544,7.32 L146.544,7.784 L144.144,8.12 C143.152,8.26933333 142.368,8.568 141.792,9.016 C141.216,9.464 140.928,10.04 140.928,10.744 C140.928,11.192 141.058667,11.6 141.32,11.968 C141.581333,12.336 141.933333,12.6266667 142.376,12.84 C142.818667,13.0533333 143.301333,13.16 143.824,13.16 Z M144.144,11.992 C143.653333,11.992 143.229333,11.8746667 142.872,11.64 C142.514667,11.4053333 142.336,11.0693333 142.336,10.632 C142.336,10.248 142.533333,9.928 142.928,9.672 C143.322667,9.416 143.904,9.23466667 144.672,9.128 L144.672,9.128 L146.544,8.856 L146.544,9.304 C146.544,10.1786667 146.32,10.8453333 145.872,11.304 C145.424,11.7626667 144.848,11.992 144.144,11.992 Z M151.424,16.04 C151.530667,16.04 151.618667,16.0053333 151.688,15.936 C151.757333,15.8666667 151.792,15.7786667 151.792,15.672 L151.792,15.672 L151.792,11.944 C152.378667,12.7546667 153.242667,13.16 154.384,13.16 C155.504,13.16 156.344,12.8026667 156.904,12.088 C157.464,11.3733333 157.76,10.472 157.792,9.384 C157.802667,9.26666667 157.808,9.08533333 157.808,8.84 C157.808,8.59466667 157.802667,8.41333333 157.792,8.296 C157.76,7.19733333 157.464,6.29333333 156.904,5.584 C156.344,4.87466667 155.504,4.52 154.384,4.52 C153.242667,4.52 152.362667,4.93066667 151.744,5.752 L151.744,5.752 L151.744,5.048 C151.744,4.93066667 151.712,4.84 151.648,4.776 C151.584,4.712 151.493333,4.68 151.376,4.68 L151.376,4.68 L150.704,4.68 C150.597333,4.68 150.509333,4.712 150.44,4.776 C150.370667,4.84 150.336,4.93066667 150.336,5.048 L150.336,5.048 L150.336,15.672 C150.336,15.7893333 150.370667,15.88 150.44,15.944 C150.509333,16.008 150.597333,16.04 150.704,16.04 L150.704,16.04 L151.424,16.04 Z M154.08,11.912 C153.354667,11.912 152.797333,11.6746667 152.408,11.2 C152.018667,10.7253333 151.813333,10.1626667 151.792,9.512 C151.781333,9.39466667 151.776,9.18666667 151.776,8.888 L151.776444,8.74622222 C151.777926,8.52251852 151.783111,8.36177778 151.792,8.264 C151.813333,7.592 152.013333,7.008 152.392,6.512 C152.770667,6.016 153.333333,5.768 154.08,5.768 C155.594667,5.768 156.352,6.792 156.352,8.84 C156.352,9.04266667 156.346667,9.19733333 156.336,9.304 C156.304,10.0826667 156.112,10.712 155.76,11.192 C155.408,11.672 154.848,11.912 154.08,11.912 Z M163.12,13.16 C163.802667,13.16 164.408,13.04 164.936,12.8 C165.464,12.56 165.872,12.2746667 166.16,11.944 C166.448,11.6133333 166.592,11.3306667 166.592,11.096 C166.592,11.0106667 166.557333,10.9413333 166.488,10.888 C166.418667,10.8346667 166.336,10.808 166.24,10.808 L166.24,10.808 L165.536,10.808 C165.408,10.808 165.317333,10.8213333 165.264,10.848 C165.210667,10.8746667 165.136,10.952 165.04,11.08 C164.88,11.2933333 164.642667,11.4986667 164.328,11.696 C164.013333,11.8933333 163.605333,11.992 163.104,11.992 C162.453333,11.992 161.930667,11.7466667 161.536,11.256 C161.141333,10.7653333 160.928,10.1733333 160.896,9.48 L160.896,9.48 L160.896,9.336 L166.448,9.336 C166.554667,9.336 166.642667,9.30133333 166.712,9.232 C166.781333,9.16266667 166.816,9.07466667 166.816,8.968 L166.816,8.968 L166.816,8.68 C166.816,7.4 166.493333,6.38666667 165.848,5.64 C165.202667,4.89333333 164.293333,4.52 163.12,4.52 C162.032,4.52 161.162667,4.86133333 160.512,5.544 C159.861333,6.22666667 159.504,7.144 159.44,8.296 L159.44,8.296 L159.424,8.824 L159.44,9.368 C159.504,10.5413333 159.861333,11.4666667 160.512,12.144 C161.162667,12.8213333 162.032,13.16 163.12,13.16 Z M165.36,8.248 L160.896,8.248 L160.896,8.2 C160.896,7.45333333 161.093333,6.84533333 161.488,6.376 C161.882667,5.90666667 162.426667,5.672 163.12,5.672 C163.802667,5.672 164.346667,5.90666667 164.752,6.376 C165.157333,6.84533333 165.36,7.45333333 165.36,8.2 L165.36,8.2 L165.36,8.248 Z M169.856,13 C169.962667,13 170.053333,12.9653333 170.128,12.896 C170.202667,12.8266667 170.24,12.7386667 170.24,12.632 L170.24,12.632 L170.24,7.912 C170.24,7.32533333 170.408,6.86133333 170.744,6.52 C171.08,6.17866667 171.541333,6.008 172.128,6.008 L172.128,6.008 L173.04,6.008 C173.157333,6.008 173.248,5.97333333 173.312,5.904 C173.376,5.83466667 173.408,5.74666667 173.408,5.64 L173.408,5.64 L173.408,5.048 C173.408,4.93066667 173.376,4.84 173.312,4.776 C173.248,4.712 173.157333,4.68 173.04,4.68 L173.04,4.68 L172.416,4.68 C171.370667,4.68 170.629333,5.04266667 170.192,5.768 L170.192,5.768 L170.192,5.064 C170.192,4.94666667 170.157333,4.85333333 170.088,4.784 C170.018667,4.71466667 169.925333,4.68 169.808,4.68 L169.808,4.68 L169.136,4.68 C169.029333,4.68 168.941333,4.71733333 168.872,4.792 C168.802667,4.86666667 168.768,4.95733333 168.768,5.064 L168.768,5.064 L168.768,12.632 C168.768,12.7386667 168.802667,12.8266667 168.872,12.896 C168.941333,12.9653333 169.029333,13 169.136,13 L169.136,13 L169.856,13 Z" id="&amp;Draper"></path>
            </g>
        </g>
    </g>
</svg>